# xmcd
#
# Track frame offsets:
# 150
# 18964
# 36118
# 54030
# 76893
# 95960
# 110128
# 129861
# 153810
# 177345
# 198273
# 212225
# 235727
# 262126
#
# Disc length: 3781 seconds
#
#
# Revision: 0
# Processed by: cddbd v1.5.2PL0 Copyright (c) Steve Scherf et al.
# Submitted via: FreeRIP 2.951 
#
DISCID=b50ec30e
DTITLE=Lisandro Amaral - Querência e Caminho
DYEAR=1900
DGENRE=Gaúcha
TTITLE0=No Garrão de um Milonguear
TTITLE1=Romance de Lua e Estrada
TTITLE2=Ponciano, Te Vai com Deus
TTITLE3=Chamarrita y Vichadero
TTITLE4=Chote Fronteiriço
TTITLE5=Fazendo Tropilha
TTITLE6=Ritual de Morte e Manada
TTITLE7=Meu Pôr-do-sol
TTITLE8=Romance do João Guerreiro
TTITLE9=Chamando Tropa
TTITLE10=Milonga no Fim do Laço
TTITLE11=Do Meu Coração
TTITLE12=De Cruzada
TTITLE13=No Tempo do Quintino
EXTD=
EXTT0=
EXTT1=
EXTT2=
EXTT3=
EXTT4=
EXTT5=
EXTT6=
EXTT7=
EXTT8=
EXTT9=
EXTT10=
EXTT11=
EXTT12=
EXTT13=
PLAYORDER=
